<?xml version="1.0"?>

<svg viewBox="-2 -20 360 110" xmlns="http://www.w3.org/2000/svg" xmlns:xlink="http://www.w3.org/1999/xlink">

<style type="text/css">
    @font-face {
        font-family: OS_Cond_Med;
        src: url(./fonts/OS_Cond_Med.woff2);
    }
    rect {
        stroke:#777;
        stroke-width:1;
        fill: none;
        }
    text {
        font-family: OS_Cond_Med;
        font-size:36px;
        text-anchor:start;
        fill: #000;
        }
    text.anno {
        font-size: 16px;
        fill: #555;
    }
    g.numbering>text {
        font-size: 24px;
        fill: #555;
        text-anchor: middle;
    }
    line, polyline {
        stroke:#999;
        stroke-width:2
        }
    polyline {
        fill: none;
    }
</style>
<!-- <rect x="-2" y="-20" width="360" height="110" style="fill:red" />  -->

<rect x="2" y="-20" width="121" height="98" style="stroke-dasharray: 2 2; stroke: #999"/>

<g class="numbering">
<text x="16" y="28">4</text>
<text x="40" y="28">3</text>
<text x="64" y="28">2</text>
<text x="88" y="28">1</text>
<text x="112" y="28">0</text>
<!-- <text x="136" y="28">2</text>
<text x="160" y="28">1</text>
<text x="184" y="28">0</text> -->
</g>

<rect x="4" y="36" width="22" height="36" rx="2"/>
<rect x="28" y="36" width="22" height="36" rx="2"/>
<rect x="52" y="36" width="22" height="36" rx="2"/>
<rect x="76" y="36" width="22" height="36" rx="2"/>
<rect x="100" y="36" width="22" height="36" rx="2"/>
<!-- <rect x="124" y="36" width="22" height="36" rx="2" style="fill:#ECC"/>
<rect x="148" y="36" width="22" height="36" rx="2" style="fill:#CEC"/>
<rect x="172" y="36" width="22" height="36" rx="2" style="fill:#CCE"/> -->
<text x="5" y="68">1</text>
<text x="29" y="68">1</text>
<text x="53" y="68">0</text>
<text x="77" y="68">1</text>
<text x="101" y="68">1</text>
<!-- <text x="125" y="68" style="fill:#777">1</text>
<text x="149" y="68" style="fill:#777">1</text>
<text x="173" y="68" style="fill:#777">0</text> -->

<!-- <polyline points="61,75 61,85 183,85 183,75"/>
<polyline points="39,75 39,95 159,95 159,75"/>
<polyline points="15,75 15,105 135,105 135,75"/> -->

<!-- <line x1="105" y1="24" x2="145" y2="24"/>

<text x="150" y="30" class="anno">32 bit chunk type, represented in text form</text>

<polyline points="87,44 87,95 140,95"/>
<polyline points="63,44 63,125 140,125"/>
<polyline points="40,44 40,155 140,155"/>
<polyline points="15,44 15,185 140,185"/>

-->

<text x="30" y="0" class="anno">Original Bits</text>
<!-- 
<text x="220" y="50" class="anno">Leftmost Bits Repeated
    <tspan x="220" y="70">to Fill Open Bits</tspan></text> -->

<!--
<text x="150" y="130" class="anno">Reserved bit is 0<tspan x="270">(upper case letter; bit 5 is 0)</tspan></text>
<text x="150" y="160" class="anno">Private bit is 0<tspan x="270">(upper case letter; bit 5 is 0)</tspan></text>
<text x="150" y="190" class="anno">Ancillary bit is 1<tspan x="270">(lower case letter; bit 5 is 1)</tspan></text>
 -->


</svg>

