<?xml version="1.0" ?>
<svg viewBox="0 0 645 575" xmlns="http://www.w3.org/2000/svg" xmlns:xlink="http://www.w3.org/1999/xlink">
<style >
  @font-face {
    font-family: OS_Cond_Med;
    src: url(./fonts/OS_Cond_Med.woff2);
  }
  text {
    font-family: OS_Cond_Med;
    fill: black;
    font-size:14px;
    text-anchor:start
  }
  rect {
    stroke:none;
    fill:white;
  }
  line {
    stroke:black;
    stroke-width:1
    }
</style>
<defs>

<symbol id="filter1" >
<rect width="8" height="8" style="fill:#EECCAA" />
</symbol>

<symbol id="filter2" >
<rect width="8" height="8" style="fill:#AABBEE" />
</symbol>
<symbol id="filter3" >
<rect width="8" height="8" style="fill:#BBEEAA" />
</symbol>

<symbol id="pixel" >
<rect width="8" height="8" style="fill:#CCC" />
<rect width="6" height="6" x="1" y="1" style="fill:#F7F7F7; " />
</symbol>

<!-- compression header and trailer -->
<symbol id="pixelh1" >
<rect width="8" height="8" style="fill:black" />
</symbol>
<symbol id="pixelh2" >
<rect width="8" height="8" style="fill:#666" />
</symbol>
<symbol id="pixelt" >
<rect width="8" height="8" style="fill:#AAA" />
</symbol>

<!-- chunk length, type, CRC -->
<symbol id="pixellen" >
<rect width="8" height="8" style="fill:black" />
</symbol>
<symbol id="pixeltyp" >
<rect width="8" height="8" style="fill:gray" />
</symbol>
<symbol id="pixelcrc" >
<rect width="8" height="8" style="fill:lightgray" />
</symbol>

<symbol id="pixel1" >
<rect width="8" height="8" style="fill:#555" />
<rect width="6" height="6" x="1" y="1" style="fill:#99A" />
</symbol>

<symbol id="pixel2" >
<rect width="8" height="8" style="fill:#933" />
</symbol>

<symbol id="pixel3" >
<rect width="8" height="8" style="fill:#363" />
</symbol>

<symbol id="pixel4" >
<rect width="8" height="8" style="fill:#55B" />
</symbol>

<symbol id="pixel5" >
<rect width="8" height="8" style="fill:#B39955" />
</symbol>

<symbol id="pixel6" >
<rect width="8" height="8" style="fill:#77AA77" />
</symbol>

<symbol id="pixel7" >
<rect width="8" height="8" style="fill:#E7E0C7" />
</symbol>

<symbol id="varrow" >
<line x1="0" y1="0" x2="-5" y2="-5" />
<line x1="0" y1="0" x2="5" y2="-5" />
<line x1="0" y1="0" x2="0" y2="-40" />
</symbol>

<symbol id="ivarrow" >
<line x1="0" y1="0" x2="5" y2="5" />
<line x1="0" y1="0" x2="-5" y2="5" />
<line x1="0" y1="0" x2="0" y2="40" />
</symbol>

</defs>

<!-- solid arrow heads right and left -->
<marker id="arrend" refX="8" refY="4" markerWidth="8" markerHeight="8" orient="auto">
  <path d="M 1 4 L 1 1 8 4 1 7z"/>
</marker>

<marker id="larrend" refX="0" refY="4" markerWidth="8" markerHeight="8" orient="auto">
  <path d="M 8 4 L 8 1 0 4 8 7z"/>
</marker>

<g style="fill:none; stroke:black; stroke-width:1" transform="translate(100,10)">


<g transform="scale(1.5)">
<use transform="translate(0,0)" xlink:href="#pixel1" />
<use transform="translate(10,0)" xlink:href="#pixel6" />
<use transform="translate(20,0)" xlink:href="#pixel4" />
<use transform="translate(30,0)" xlink:href="#pixel6" />
<use transform="translate(40,0)" xlink:href="#pixel2" />
<use transform="translate(50,0)" xlink:href="#pixel6" />
<use transform="translate(60,0)" xlink:href="#pixel4" />
<use transform="translate(70,0)" xlink:href="#pixel6" />
<use transform="translate(80,0)" xlink:href="#pixel1" />
<use transform="translate(90,0)" xlink:href="#pixel6" />
<use transform="translate(100,0)" xlink:href="#pixel4" />
<use transform="translate(110,0)" xlink:href="#pixel6" />

<use transform="translate(0,10)" xlink:href="#pixel7" />
<use transform="translate(10,10)" xlink:href="#pixel7" />
<use transform="translate(20,10)" xlink:href="#pixel7" />
<use transform="translate(30,10)" xlink:href="#pixel7" />
<use transform="translate(40,10)" xlink:href="#pixel7" />
<use transform="translate(50,10)" xlink:href="#pixel7" />
<use transform="translate(60,10)" xlink:href="#pixel7" />
<use transform="translate(70,10)" xlink:href="#pixel7" />
<use transform="translate(80,10)" xlink:href="#pixel7" />
<use transform="translate(90,10)" xlink:href="#pixel7" />
<use transform="translate(100,10)" xlink:href="#pixel7" />
<use transform="translate(110,10)" xlink:href="#pixel7" />

<use transform="translate(0,20)" xlink:href="#pixel5" />
<use transform="translate(10,20)" xlink:href="#pixel6" />
<use transform="translate(20,20)" xlink:href="#pixel5" />
<use transform="translate(30,20)" xlink:href="#pixel6" />
<use transform="translate(40,20)" xlink:href="#pixel5" />
<use transform="translate(50,20)" xlink:href="#pixel6" />
<use transform="translate(60,20)" xlink:href="#pixel5" />
<use transform="translate(70,20)" xlink:href="#pixel6" />
<use transform="translate(80,20)" xlink:href="#pixel5" />
<use transform="translate(90,20)" xlink:href="#pixel6" />
<use transform="translate(100,20)" xlink:href="#pixel5" />
<use transform="translate(110,20)" xlink:href="#pixel6" />

<use transform="translate(0,30)" xlink:href="#pixel7" />
<use transform="translate(10,30)" xlink:href="#pixel7" />
<use transform="translate(20,30)" xlink:href="#pixel7" />
<use transform="translate(30,30)" xlink:href="#pixel7" />
<use transform="translate(40,30)" xlink:href="#pixel7" />
<use transform="translate(50,30)" xlink:href="#pixel7" />
<use transform="translate(60,30)" xlink:href="#pixel7" />
<use transform="translate(70,30)" xlink:href="#pixel7" />
<use transform="translate(80,30)" xlink:href="#pixel7" />
<use transform="translate(90,30)" xlink:href="#pixel7" />
<use transform="translate(100,30)" xlink:href="#pixel7" />
<use transform="translate(110,30)" xlink:href="#pixel7" />

<use transform="translate(0,40)" xlink:href="#pixel3" />
<use transform="translate(10,40)" xlink:href="#pixel6" />
<use transform="translate(20,40)" xlink:href="#pixel4" />
<use transform="translate(30,40)" xlink:href="#pixel6" />
<use transform="translate(40,40)" xlink:href="#pixel3" />
<use transform="translate(50,40)" xlink:href="#pixel6" />
<use transform="translate(60,40)" xlink:href="#pixel4" />
<use transform="translate(70,40)" xlink:href="#pixel6" />
<use transform="translate(80,40)" xlink:href="#pixel3" />
<use transform="translate(90,40)" xlink:href="#pixel6" />
<use transform="translate(100,40)" xlink:href="#pixel4" />
<use transform="translate(110,40)" xlink:href="#pixel6" />

<use transform="translate(0,50)" xlink:href="#pixel7" />
<use transform="translate(10,50)" xlink:href="#pixel7" />
<use transform="translate(20,50)" xlink:href="#pixel7" />
<use transform="translate(30,50)" xlink:href="#pixel7" />
<use transform="translate(40,50)" xlink:href="#pixel7" />
<use transform="translate(50,50)" xlink:href="#pixel7" />
<use transform="translate(60,50)" xlink:href="#pixel7" />
<use transform="translate(70,50)" xlink:href="#pixel7" />
<use transform="translate(80,50)" xlink:href="#pixel7" />
<use transform="translate(90,50)" xlink:href="#pixel7" />
<use transform="translate(100,50)" xlink:href="#pixel7" />
<use transform="translate(110,50)" xlink:href="#pixel7" />

<use transform="translate(0,60)" xlink:href="#pixel5" />
<use transform="translate(10,60)" xlink:href="#pixel6" />
<use transform="translate(20,60)" xlink:href="#pixel5" />
<use transform="translate(30,60)" xlink:href="#pixel6" />
<use transform="translate(40,60)" xlink:href="#pixel5" />
<use transform="translate(50,60)" xlink:href="#pixel6" />
<use transform="translate(60,60)" xlink:href="#pixel5" />
<use transform="translate(70,60)" xlink:href="#pixel6" />
<use transform="translate(80,60)" xlink:href="#pixel5" />
<use transform="translate(90,60)" xlink:href="#pixel6" />
<use transform="translate(100,60)" xlink:href="#pixel5" />
<use transform="translate(110,60)" xlink:href="#pixel6" />

<use transform="translate(0,70)" xlink:href="#pixel7" />
<use transform="translate(10,70)" xlink:href="#pixel7" />
<use transform="translate(20,70)" xlink:href="#pixel7" />
<use transform="translate(30,70)" xlink:href="#pixel7" />
<use transform="translate(40,70)" xlink:href="#pixel7" />
<use transform="translate(50,70)" xlink:href="#pixel7" />
<use transform="translate(60,70)" xlink:href="#pixel7" />
<use transform="translate(70,70)" xlink:href="#pixel7" />
<use transform="translate(80,70)" xlink:href="#pixel7" />
<use transform="translate(90,70)" xlink:href="#pixel7" />
<use transform="translate(100,70)" xlink:href="#pixel7" />
<use transform="translate(110,70)" xlink:href="#pixel7" />

<use transform="translate(0,80)" xlink:href="#pixel1" />
<use transform="translate(10,80)" xlink:href="#pixel6" />
<use transform="translate(20,80)" xlink:href="#pixel4" />
<use transform="translate(30,80)" xlink:href="#pixel6" />
<use transform="translate(40,80)" xlink:href="#pixel2" />
<use transform="translate(50,80)" xlink:href="#pixel6" />
<use transform="translate(60,80)" xlink:href="#pixel4" />
<use transform="translate(70,80)" xlink:href="#pixel6" />
<use transform="translate(80,80)" xlink:href="#pixel1" />
<use transform="translate(90,80)" xlink:href="#pixel6" />
<use transform="translate(100,80)" xlink:href="#pixel4" />
<use transform="translate(110,80)" xlink:href="#pixel6" />

<use transform="translate(0,90)" xlink:href="#pixel7" />
<use transform="translate(10,90)" xlink:href="#pixel7" />
<use transform="translate(20,90)" xlink:href="#pixel7" />
<use transform="translate(30,90)" xlink:href="#pixel7" />
<use transform="translate(40,90)" xlink:href="#pixel7" />
<use transform="translate(50,90)" xlink:href="#pixel7" />
<use transform="translate(60,90)" xlink:href="#pixel7" />
<use transform="translate(70,90)" xlink:href="#pixel7" />
<use transform="translate(80,90)" xlink:href="#pixel7" />
<use transform="translate(90,90)" xlink:href="#pixel7" />
<use transform="translate(100,90)" xlink:href="#pixel7" />
<use transform="translate(110,90)" xlink:href="#pixel7" />

<use transform="translate(0,100)" xlink:href="#pixel5" />
<use transform="translate(10,100)" xlink:href="#pixel6" />
<use transform="translate(20,100)" xlink:href="#pixel5" />
<use transform="translate(30,100)" xlink:href="#pixel6" />
<use transform="translate(40,100)" xlink:href="#pixel5" />
<use transform="translate(50,100)" xlink:href="#pixel6" />
<use transform="translate(60,100)" xlink:href="#pixel5" />
<use transform="translate(70,100)" xlink:href="#pixel6" />
<use transform="translate(80,100)" xlink:href="#pixel5" />
<use transform="translate(90,100)" xlink:href="#pixel6" />
<use transform="translate(100,100)" xlink:href="#pixel5" />
<use transform="translate(110,100)" xlink:href="#pixel6" />

<use transform="translate(0,110)" xlink:href="#pixel7" />
<use transform="translate(10,110)" xlink:href="#pixel7" />
<use transform="translate(20,110)" xlink:href="#pixel7" />
<use transform="translate(30,110)" xlink:href="#pixel7" />
<use transform="translate(40,110)" xlink:href="#pixel7" />
<use transform="translate(50,110)" xlink:href="#pixel7" />
<use transform="translate(60,110)" xlink:href="#pixel7" />
<use transform="translate(70,110)" xlink:href="#pixel7" />
<use transform="translate(80,110)" xlink:href="#pixel7" />
<use transform="translate(90,110)" xlink:href="#pixel7" />
<use transform="translate(100,110)" xlink:href="#pixel7" />
<use transform="translate(110,110)" xlink:href="#pixel7" />

</g>
</g>


<g transform="translate(20,100)">
<text x="5" y="20">PNG</text>
<text x="5" y="35">image</text>
<line marker-end="url(#arrend)" x1="20" y1="40" x2="20" y2="80"/>
</g>


<g transform="translate(20,200)">
<rect width="85" height="50"  style="stroke: #999"/>
<text x="10" y="20">Pass</text>
<text x="10" y="40">extraction</text>

<g transform="translate(0,60)">
<text x="1" y="20">Reduced</text>
<text x="1" y="40">image 1</text>
<g transform="translate(65,20)">
<use transform="translate(0,0)" xlink:href="#pixel1" />
<use transform="translate(10,0)" xlink:href="#pixel1" />
<use transform="translate(0,10)" xlink:href="#pixel1" />
<use transform="translate(10,10)" xlink:href="#pixel1" />
</g>
</g>

<g transform="translate(0,120)">
<text x="1" y="20">Reduced</text>
<text x="1" y="40">image 2</text>
<g transform="translate(65,20)">
<use transform="translate(0,0)" xlink:href="#pixel2" />
<use transform="translate(0,10)" xlink:href="#pixel2" />
</g>
</g>

<g transform="translate(0,180)">
<text x="1" y="20">Reduced</text>
<text x="1" y="40">image 3</text>
<g transform="translate(65,20)">
<use transform="translate(0,0)" xlink:href="#pixel3" />
<use transform="translate(10,0)" xlink:href="#pixel3" />
<use transform="translate(20,0)" xlink:href="#pixel3" />
</g>
</g>

<g transform="translate(0,240)">
<text x="1" y="20">Reduced</text>
<text x="1" y="40">image 4</text>
<g transform="translate(65,20)">
<use transform="translate(0,0)" xlink:href="#pixel4" />
<use transform="translate(10,0)" xlink:href="#pixel4" />
<use transform="translate(20,0)" xlink:href="#pixel4" />
<use transform="translate(0,10)" xlink:href="#pixel4" />
<use transform="translate(10,10)" xlink:href="#pixel4" />
<use transform="translate(20,10)" xlink:href="#pixel4" />
<use transform="translate(0,20)" xlink:href="#pixel4" />
<use transform="translate(10,20)" xlink:href="#pixel4" />
<use transform="translate(20,20)" xlink:href="#pixel4" />
</g>
</g>

<g transform="translate(0,300)">
<text x="1" y="20">Reduced</text>
<text x="1" y="40">image 5</text>
<g transform="translate(65,20)">
<use transform="translate(0,0)" xlink:href="#pixel5" />
<use transform="translate(10,0)" xlink:href="#pixel5" />
<use transform="translate(20,0)" xlink:href="#pixel5" />
<use transform="translate(30,0)" xlink:href="#pixel5" />
<use transform="translate(40,0)" xlink:href="#pixel5" />
<use transform="translate(50,0)" xlink:href="#pixel5" />
<use transform="translate(0,10)" xlink:href="#pixel5" />
<use transform="translate(10,10)" xlink:href="#pixel5" />
<use transform="translate(20,10)" xlink:href="#pixel5" />
<use transform="translate(30,10)" xlink:href="#pixel5" />
<use transform="translate(40,10)" xlink:href="#pixel5" />
<use transform="translate(50,10)" xlink:href="#pixel5" />
<use transform="translate(0,20)" xlink:href="#pixel5" />
<use transform="translate(10,20)" xlink:href="#pixel5" />
<use transform="translate(20,20)" xlink:href="#pixel5" />
<use transform="translate(30,20)" xlink:href="#pixel5" />
<use transform="translate(40,20)" xlink:href="#pixel5" />
<use transform="translate(50,20)" xlink:href="#pixel5" />
</g>
</g>

</g>

<g transform="translate(140,200)">
<rect width="90" height="50"  style="stroke: #999"/>
<text x="10" y="20">Scanline</text>
<text x="10" y="40">serialization</text>
<g transform="translate(20,60)">
<use transform="translate(0,0)" xlink:href="#pixel1" />
<use transform="translate(10,0)" xlink:href="#pixel1" />

<use transform="translate(0,20)" xlink:href="#pixel1" />
<use transform="translate(10,20)" xlink:href="#pixel1" />

<use transform="translate(0,40)" xlink:href="#pixel2" />

<use transform="translate(0,60)" xlink:href="#pixel2" />

<use transform="translate(0,80)" xlink:href="#pixel3" />
<use transform="translate(10,80)" xlink:href="#pixel3" />
<use transform="translate(20,80)" xlink:href="#pixel3" />

<use transform="translate(0,100)" xlink:href="#pixel4" />
<use transform="translate(10,100)" xlink:href="#pixel4" />
<use transform="translate(20,100)" xlink:href="#pixel4" />

<use transform="translate(0,120)" xlink:href="#pixel4" />
<use transform="translate(10,120)" xlink:href="#pixel4" />
<use transform="translate(20,120)" xlink:href="#pixel4" />

<use transform="translate(0,140)" xlink:href="#pixel4" />
<use transform="translate(10,140)" xlink:href="#pixel4" />
<use transform="translate(20,140)" xlink:href="#pixel4" />


<use transform="translate(0,160)" xlink:href="#pixel5" />
<use transform="translate(10,160)" xlink:href="#pixel5" />
<use transform="translate(20,160)" xlink:href="#pixel5" />
<use transform="translate(30,160)" xlink:href="#pixel5" />
<use transform="translate(40,160)" xlink:href="#pixel5" />
<use transform="translate(50,160)" xlink:href="#pixel5" />

<use transform="translate(0,180)" xlink:href="#pixel5" />
<use transform="translate(10,180)" xlink:href="#pixel5" />
<use transform="translate(20,180)" xlink:href="#pixel5" />
<use transform="translate(30,180)" xlink:href="#pixel5" />
<use transform="translate(40,180)" xlink:href="#pixel5" />
<use transform="translate(50,180)" xlink:href="#pixel5" />

<use transform="translate(0,200)" xlink:href="#pixel5" />
<use transform="translate(10,200)" xlink:href="#pixel5" />
<use transform="translate(20,200)" xlink:href="#pixel5" />
<use transform="translate(30,200)" xlink:href="#pixel5" />
<use transform="translate(40,200)" xlink:href="#pixel5" />
<use transform="translate(50,200)" xlink:href="#pixel5" />
</g>
</g>

<g transform="translate(260,200)">
<rect width="80" height="50"  style="stroke: #999"/>
<text x="10" y="30">Filtering</text>
<g transform="translate(20,60)">
<use transform="translate(-10,0)" xlink:href="#filter1" />
<use transform="translate(0,0)" xlink:href="#pixel" />
<use transform="translate(10,0)" xlink:href="#pixel" />

<use transform="translate(-10,20)" xlink:href="#filter2" />
<use transform="translate(0,20)" xlink:href="#pixel" />
<use transform="translate(10,20)" xlink:href="#pixel" />

<use transform="translate(-10,40)" xlink:href="#filter2" />
<use transform="translate(0,40)" xlink:href="#pixel" />

<use transform="translate(-10,60)" xlink:href="#filter3" />
<use transform="translate(0,60)" xlink:href="#pixel" />

<use transform="translate(-10,80)" xlink:href="#filter1" />
<use transform="translate(0,80)" xlink:href="#pixel" />
<use transform="translate(10,80)" xlink:href="#pixel" />
<use transform="translate(20,80)" xlink:href="#pixel" />

<use transform="translate(-10,100)" xlink:href="#filter2" />
<use transform="translate(0,100)" xlink:href="#pixel" />
<use transform="translate(10,100)" xlink:href="#pixel" />
<use transform="translate(20,100)" xlink:href="#pixel" />

<use transform="translate(-10,120)" xlink:href="#filter2" />
<use transform="translate(0,120)" xlink:href="#pixel" />
<use transform="translate(10,120)" xlink:href="#pixel" />
<use transform="translate(20,120)" xlink:href="#pixel" />

<use transform="translate(-10,140)" xlink:href="#filter3" />
<use transform="translate(0,140)" xlink:href="#pixel" />
<use transform="translate(10,140)" xlink:href="#pixel" />
<use transform="translate(20,140)" xlink:href="#pixel" />

<use transform="translate(-10,160)" xlink:href="#filter1" />
<use transform="translate(0,160)" xlink:href="#pixel" />
<use transform="translate(10,160)" xlink:href="#pixel" />
<use transform="translate(20,160)" xlink:href="#pixel" />
<use transform="translate(30,160)" xlink:href="#pixel" />
<use transform="translate(40,160)" xlink:href="#pixel" />
<use transform="translate(50,160)" xlink:href="#pixel" />

<use transform="translate(-10,180)" xlink:href="#filter2" />
<use transform="translate(0,180)" xlink:href="#pixel" />
<use transform="translate(10,180)" xlink:href="#pixel" />
<use transform="translate(20,180)" xlink:href="#pixel" />
<use transform="translate(30,180)" xlink:href="#pixel" />
<use transform="translate(40,180)" xlink:href="#pixel" />
<use transform="translate(50,180)" xlink:href="#pixel" />

<use transform="translate(-10,200)" xlink:href="#filter3" />
<use transform="translate(0,200)" xlink:href="#pixel" />
<use transform="translate(10,200)" xlink:href="#pixel" />
<use transform="translate(20,200)" xlink:href="#pixel" />
<use transform="translate(30,200)" xlink:href="#pixel" />
<use transform="translate(40,200)" xlink:href="#pixel" />
<use transform="translate(50,200)" xlink:href="#pixel" />
</g>
</g>

<g transform="translate(380,200)">
<rect width="100" height="50" style="stroke: #999"/>
<text x="10" y="30">Compression</text>
<g transform="translate(20,60)">
<use transform="translate(0,0)" xlink:href="#pixelh1" />
<use transform="translate(0,10)" xlink:href="#pixelh2" />
<use transform="translate(0,20)" xlink:href="#pixel" />
<use transform="translate(0,30)" xlink:href="#pixel" />
<use transform="translate(0,40)" xlink:href="#pixel" />
<use transform="translate(0,50)" xlink:href="#pixel" />
<use transform="translate(0,60)" xlink:href="#pixel" />
<use transform="translate(0,70)" xlink:href="#pixel" />
<use transform="translate(0,80)" xlink:href="#pixel" />
<use transform="translate(0,90)" xlink:href="#pixel" />
<use transform="translate(0,100)" xlink:href="#pixel" />
<use transform="translate(0,110)" xlink:href="#pixel" />
<use transform="translate(0,120)" xlink:href="#pixel" />
<use transform="translate(0,130)" xlink:href="#pixel" />
<use transform="translate(0,140)" xlink:href="#pixel" />
<use transform="translate(0,150)" xlink:href="#pixel" />
<use transform="translate(0,160)" xlink:href="#pixel" />
<use transform="translate(0,170)" xlink:href="#pixel" />
<use transform="translate(0,180)" xlink:href="#pixel" />
<use transform="translate(0,190)" xlink:href="#pixel" />
<use transform="translate(0,200)" xlink:href="#pixelt" />
</g>
</g>

<g transform="translate(500,200)">
<rect width="90" height="50"  style="stroke: #999"/>
<text x="10" y="30">Chunking</text>
<g transform="translate(0,60)">
<use transform="translate(0,0)" xlink:href="#pixellen" />
<use transform="translate(10,0)" xlink:href="#pixeltyp" />
<use transform="translate(20,0)" xlink:href="#pixel" />
<use transform="translate(30,0)" xlink:href="#pixel" />
<use transform="translate(40,0)" xlink:href="#pixel" />
<use transform="translate(50,0)" xlink:href="#pixel" />
<use transform="translate(60,0)" xlink:href="#pixel" />
<use transform="translate(70,0)" xlink:href="#pixel" />
<use transform="translate(80,0)" xlink:href="#pixelcrc" />

<use transform="translate(0,20)" xlink:href="#pixellen" />
<use transform="translate(10,20)" xlink:href="#pixeltyp" />
<use transform="translate(20,20)" xlink:href="#pixel" />
<use transform="translate(30,20)" xlink:href="#pixel" />
<use transform="translate(40,20)" xlink:href="#pixel" />
<use transform="translate(50,20)" xlink:href="#pixel" />
<use transform="translate(60,20)" xlink:href="#pixel" />
<use transform="translate(70,20)" xlink:href="#pixel" />
<use transform="translate(80,20)" xlink:href="#pixelcrc" />

<use transform="translate(0,40)" xlink:href="#pixellen" />
<use transform="translate(10,40)" xlink:href="#pixeltyp" />
<use transform="translate(20,40)" xlink:href="#pixel" />
<use transform="translate(30,40)" xlink:href="#pixel" />
<use transform="translate(40,40)" xlink:href="#pixel" />
<use transform="translate(50,40)" xlink:href="#pixel" />
<use transform="translate(60,40)" xlink:href="#pixel" />
<use transform="translate(70,40)" xlink:href="#pixel" />
<use transform="translate(80,40)" xlink:href="#pixelcrc" />

<use transform="translate(0,60)" xlink:href="#pixellen" />
<use transform="translate(10,60)" xlink:href="#pixeltyp" />
<use transform="translate(20,60)" xlink:href="#pixel" />
<use transform="translate(30,60)" xlink:href="#pixel" />
<use transform="translate(40,60)" xlink:href="#pixel" />
<use transform="translate(50,60)" xlink:href="#pixelcrc" />

</g>

</g>



<g transform="translate(500,100)">
<text x="10" y="20">Datastream</text>
<text x="10" y="35">construction</text>
<line marker-end="url(#arrend)" x1="40" y1="80" x2="40" y2="40"/>
</g>

<!-- arrows joining stage boxes -->
<line marker-end="url(#arrend)" x1="105" y1="225" x2="140" y2="225"/>
<line marker-end="url(#arrend)" x1="230" y1="225" x2="260" y2="225"/>
<line marker-end="url(#arrend)" x1="340" y1="225" x2="380" y2="225"/>
<line marker-end="url(#arrend)" x1="480" y1="225" x2="500" y2="225"/>



</svg>

