<?xml version="1.0" standalone="no"?>
<!DOCTYPE svg PUBLIC "-//W3C//DTD SVG 1.0//EN"
"http://www.w3.org/TR/2001/REC-SVG-20010904/DTD/svg10.dtd">
<svg width="640" height="280" xmlns="http://www.w3.org/2000/svg" xmlns:xlink="http://www.w3.org/1999/xlink">
<!-- solid arrow head -->
<marker id="arrend" refX="7" refY="4" markerWidth="8" markerHeight="8" orient="auto">
  <path d="M 1 4 L 1 1 7 4 1 7z"/>
</marker>

<g transform="translate(10,10)">

<g style="fill:aqua; stroke:black; stroke-width:2">
	<rect x="165" y="0" width="125" height="40"/>

	<rect x="0" y="80" width="125" height="40"/>
	<rect x="165" y="80" width="125" height="40"/>

	<rect x="0" y="140" width="125" height="40"/>
	<rect x="165" y="140" width="125" height="40"/>
  <rect x="165" y="220" width="125" height="40"/>

	<rect x="495" y="80" width="125" height="100"/>
</g>
<g style="font-family:Verdana, sans-serif; font-size:14; fill:black; text-anchor:middle">
	<text x="227.5" y="20">source image</text>

	<text x="62.5" y="100">reference image</text>
	<text x="227.5" y="100">PNG image</text>
	<text x="392.5" y="100">Encode</text>
	<text x="557.5" y="130">PNG data stream</text>

	<text x="62.5" y="160">reference image</text>
	<text x="227.5" y="160">PNG image</text>
	<text x="392.5" y="160">Decode</text>

	<text x="227.5" y="240">delivered image</text>
</g>
<g style="fill:none; stroke:black; stroke-width:1">
	<line marker-end="url(#arrend)" x1="125" y1="100" x2="165" y2="100"/>
	<line marker-end="url(#arrend)"  x1="290" y1="100" x2="330" y2="100"/>
  <line marker-end="url(#arrend)"  x1="455" y1="100" x2="495" y2="100"/>
	<line marker-end="url(#arrend)"  x1="165" y1="160" x2="125" y2="160"/>
	<line marker-end="url(#arrend)"  x1="330" y1="160" x2="290" y2="160"/>
	<line marker-end="url(#arrend)"  x1="495" y1="160" x2="455" y2="160"/>
	<line  marker-end="url(#arrend)" x1="227.5" y1="40" x2="227.5" y2="80" style="stroke-dasharray:2 2"/>
	<line marker-end="url(#arrend)"  x1="227.5" y1="180" x2="227.5" y2="220" style="stroke-dasharray:2 2"/>
  <line marker-end="url(#arrend)"  x1="196.25" y1="40" x2="62.5" y2="80"/>
  <line marker-end="url(#arrend)"  x1="62.5" y1="180" x2="196.25" y2="220"/>
</g>

<g style="font-family:Verdana, sans-serif; font-size:14; fill:black; text-anchor:start">
	<text x="232.5" y="60">actually</text>

	<text x="232.5" y="205">actually</text>
</g>
<g style="font-family:Verdana, sans-serif; font-size:14; fill:black; text-anchor:end">
	<text x="100" y="60">conceptually</text>
	<text x="100" y="210">conceptually</text>
</g>

</g>
</svg>

