<?xml version="1.0" standalone="no"?>
<!DOCTYPE svg PUBLIC "-//W3C//DTD SVG 1.0//EN"
"http://www.w3.org/TR/2001/REC-SVG-20010904/DTD/svg10.dtd">
<svg width="640" height="320" xmlns="http://www.w3.org/2000/svg" xmlns:xlink="http://www.w3.org/1999/xlink">
<g style="fill:aqua; stroke:black; stroke-width:1">
<!--  <rect x="0" y="0" width="640" height="320" style="fill:none"/>  -->
	
</g>

<g style="fill:none; stroke:black; stroke-width:1">
  <polyline points="220,10 200,10 200,310 220,310" />
	<line x1="200" y1="30" x2="220" y2="30"/>
	<line x1="200" y1="50" x2="220" y2="50"/>
	<line x1="200" y1="70" x2="220" y2="70"/>
	<line x1="200" y1="90" x2="220" y2="90"/>
	<line x1="200" y1="110" x2="220" y2="110"/>
	<line x1="200" y1="130" x2="220" y2="130"/>
	<line x1="200" y1="150" x2="220" y2="150"/>
	<line x1="200" y1="170" x2="220" y2="170"/>
	<line x1="200" y1="190" x2="220" y2="190"/>
	<line x1="200" y1="210" x2="220" y2="210"/>
	<line x1="200" y1="230" x2="220" y2="230"/>
	<line x1="200" y1="250" x2="220" y2="250"/>
	<line x1="200" y1="270" x2="220" y2="270"/>
	<line x1="200" y1="290" x2="220" y2="290"/>



	<polyline points="60,90 40,90 40,230 60,230" />
	
	<line x1="40" y1="110" x2="60" y2="110"/>
	<line x1="40" y1="130" x2="60" y2="130"/>
	<line x1="40" y1="150" x2="60" y2="150"/>
	<line x1="40" y1="170" x2="60" y2="170"/>
	<line x1="40" y1="190" x2="60" y2="190"/>
	<line x1="40" y1="210" x2="60" y2="210"/>








</g>

<g style="fill:none; stroke:black; stroke-width:1; stroke-dasharray:5 2">

	<line x1="60" y1="90" x2="200" y2="10"/>
	<line x1="60" y1="110" x2="200" y2="50"/>
	<line x1="60" y1="130" x2="200" y2="90"/>
	<line x1="60" y1="150" x2="200" y2="130"/>
	<line x1="60" y1="170" x2="200" y2="190"/>
	<line x1="60" y1="190" x2="200" y2="230"/>
	<line x1="60" y1="210" x2="200" y2="270"/>
	<line x1="60" y1="230" x2="200" y2="310"/>

</g>

<g style="font-family:Verdana, sans-serif; stroke:none; font-size:14; fill:black; text-anchor:start">
	<text x="230" y="15">15</text>
	<text x="230" y="55">13</text>
	<text x="230" y="95">11</text>
	<text x="230" y="135">9</text>
	<text x="230" y="195">6</text>
	<text x="230" y="235">4</text>
	<text x="230" y="275">2</text>
	<text x="230" y="315">0</text>

</g>

<g style="font-family:Verdana, sans-serif; stroke:none; font-size:14; fill:black; text-anchor:end">
	<text x="30" y="95">7</text>
	<text x="30" y="115">6</text>
	<text x="30" y="135">5</text>
	<text x="30" y="155">4</text>
	<text x="30" y="175">3</text>
	<text x="30" y="195">2</text>
	<text x="30" y="215">1</text>
	<text x="30" y="235">0</text>



</g>


</svg>

