<?xml version="1.0" standalone="no"?>
<!DOCTYPE svg PUBLIC "-//W3C//DTD SVG 1.0//EN"
"http://www.w3.org/TR/2001/REC-SVG-20010904/DTD/svg10.dtd">
<svg width="800" height="540" xmlns="http://www.w3.org/2000/svg" xmlns:xlink="http://www.w3.org/1999/xlink">
<style type="text/css">
<![CDATA[
rect {stroke:black;fill:white;}
text {font-family:Verdana, sans-serif;font-size:14;text-anchor:start}
line {stroke:black;stroke-width:1}
]]>
</style>


<g transform="translate(300,10)">
<rect width="60" height="40" />
<text x="5" y="25">IHDR</text>
<text x="45" y="12" style="font-size:8pt">1</text>
</g>

<line x1="303" y1="50" x2="35" y2="120"/>
<line x1="309" y1="50" x2="95" y2="120"/>
<line x1="315" y1="50" x2="155" y2="120"/>
<line x1="321" y1="50" x2="215" y2="120"/>
<line x1="327" y1="50" x2="275" y2="120"/>
<line x1="333" y1="50" x2="335" y2="120"/>
<line x1="339" y1="50" x2="475" y2="120"/>
<line x1="345" y1="50" x2="565" y2="120"/>
<line x1="351" y1="50" x2="625" y2="120"/>
<line x1="357" y1="50" x2="685" y2="120"/>

<g transform="translate(0,120)">


<g transform="translate(10,0)">
<rect width="50" height="40" />
<text x="5" y="25">tIME</text>
<text x="40" y="12" style="font-size:8pt">?</text>
</g>
<g transform="translate(70,0)">
<rect width="50" height="40" />
<text x="5" y="25">zTXt</text>
<text x="40" y="12" style="font-size:8pt">*</text>
</g>
<g transform="translate(130,0)">
<rect width="50" height="40" />
<text x="5" y="25">tEXt</text>
<text x="40" y="12" style="font-size:8pt">*</text>
</g>
<g transform="translate(190,0)">
<rect width="50" height="40" />
<text x="5" y="25">iTXt</text>
<text x="40" y="12" style="font-size:8pt">*</text>
</g>
<g transform="translate(250,0)">
<rect width="50" height="40" />
<text x="5" y="25">pHYs</text>
<text x="40" y="12" style="font-size:8pt">?</text>
</g>
<g transform="translate(310,0)">
<rect width="50" height="40" />
<text x="5" y="25">sPLT</text>
<text x="40" y="12" style="font-size:8pt">*</text>
</g>
<g transform="translate(420,0)">
<rect width="110" height="40" />
<text x="2" y="25">(iCCP | sRGB)</text>
<text x="100" y="12" style="font-size:8pt">?</text>
</g>
<g transform="translate(540,0)">
<rect width="50" height="40" />
<text x="5" y="25">sBIT</text>
<text x="40" y="12" style="font-size:8pt">?</text>
</g>
<g transform="translate(600,0)">
<rect width="50" height="40" />
<text x="5" y="25">gAMA</text>
<text x="40" y="12" style="font-size:8pt">?</text>
</g>
<g transform="translate(660,0)">
<rect width="50" height="40" />
<text x="5" y="25">cHRM</text>
<text x="40" y="12" style="font-size:8pt">?</text>
</g>

</g>

<line x1="590" y1="200" x2="475" y2="160"/>
<line x1="600" y1="200" x2="565" y2="160"/>
<line x1="610" y1="200" x2="625" y2="160"/>
<line x1="620" y1="200" x2="685" y2="160"/>

<g transform="translate(580,200)">
<rect width="50" height="40" />
<text x="5" y="25">PLTE</text>
<text x="40" y="12" style="font-size:8pt">1</text>
</g>

<line x1="590" y1="240" x2="525" y2="280"/>
<line x1="600" y1="240" x2="605" y2="280"/>
<line x1="610" y1="240" x2="685" y2="280"/>

<g transform="translate(0,280)">

<g transform="translate(500,0)">
<rect width="50" height="40" />
<text x="5" y="25">tRNS</text>
<text x="40" y="12" style="font-size:8pt">?</text>
</g>

<g transform="translate(580,0)">
<rect width="50" height="40" />
<text x="5" y="25">hIST</text>
<text x="40" y="12" style="font-size:8pt">?</text>
</g>

<g transform="translate(660,0)">
<rect width="50" height="40" />
<text x="5" y="25">bKGD</text>
<text x="40" y="12" style="font-size:8pt">?</text>
</g>

</g>


<line x1="364" y1="400" x2="275" y2="160"/>
<line x1="372" y1="400" x2="335" y2="160"/>
<line x1="380" y1="400" x2="530" y2="320"/>
<line x1="388" y1="400" x2="610" y2="320"/>
<line x1="396" y1="400" x2="690" y2="320"/>



<g transform="translate(360,400)">
<rect width="60" height="40" />
<text x="5" y="25">IDAT</text>
<text x="45" y="12" style="font-size:8pt">+</text>
</g>

<line x1="390" y1="440" x2="380" y2="480"/>
<line x1="35" y1="160" x2="344" y2="480"/>
<line x1="95" y1="160" x2="352" y2="480"/>
<line x1="155" y1="160" x2="360" y2="480"/>
<line x1="215" y1="160" x2="368" y2="480"/>

<g transform="translate(340,480)">
<rect width="60" height="40" />
<text x="5" y="25">IEND</text>
<text x="45" y="12" style="font-size:8pt">1</text>
</g>


</svg>

