<?xml version="1.0"?>
<svg viewBox="0 0 640 290" xmlns="http://www.w3.org/2000/svg" xmlns:xlink="http://www.w3.org/1999/xlink">
<style>
@font-face {
	font-family: OS_Cond_Med;
	src: url(./fonts/OS_Cond_Med.woff2);
}
text {
	font-family: OS_Cond_Med;
	fill: black;
}
</style>
<!-- solid arrow head -->
<marker id="arrend" refX="7" refY="4" markerWidth="8" markerHeight="8" orient="auto">
  <path d="M 1 4 L 1 1 7 4 1 7z"/>
</marker>

<g transform="translate(10,10)">

<g style="fill:#BED; stroke:black; stroke-width:2">
	<rect x="165" y="0" width="125" height="40"/>

	<rect x="0" y="80" width="125" height="40"/>
	<rect x="165" y="80" width="125" height="40"/>

	<rect x="0" y="140" width="125" height="40"/>
	<rect x="165" y="140" width="125" height="40"/>
  <rect x="165" y="220" width="125" height="40"/>

	<rect x="495" y="80" width="125" height="100"/>
</g>
<g style="font-size:18px; text-anchor: middle;
">
	<text x="227.5" y="24">source image</text>

	<text x="62.5" y="104">reference image</text>
	<text x="227.5" y="104">PNG image</text>

	<text x="557.5" y="134">PNG data stream</text>

	<text x="62.5" y="164">reference image</text>
	<text x="227.5" y="164">PNG image</text>


	<text x="227.5" y="244">delivered image</text>
</g>
<g style="font-size:24px; 	text-anchor: middle;
">
	<text x="392.5" y="106">Encode</text>
	<text x="392.5" y="166">Decode</text>
</g>
<g style="fill:none; stroke:black; stroke-width:1">
	<line marker-end="url(#arrend)" x1="125" y1="100" x2="165" y2="100"/>
	<line marker-end="url(#arrend)"  x1="290" y1="100" x2="330" y2="100"/>
  <line marker-end="url(#arrend)"  x1="455" y1="100" x2="495" y2="100"/>
	<line marker-end="url(#arrend)"  x1="165" y1="160" x2="125" y2="160"/>
	<line marker-end="url(#arrend)"  x1="330" y1="160" x2="290" y2="160"/>
	<line marker-end="url(#arrend)"  x1="495" y1="160" x2="455" y2="160"/>
	<line  marker-end="url(#arrend)" x1="227.5" y1="40" x2="227.5" y2="80" style="stroke-dasharray:2 2"/>
	<line marker-end="url(#arrend)"  x1="227.5" y1="180" x2="227.5" y2="220" style="stroke-dasharray:2 2"/>
  <line marker-end="url(#arrend)"  x1="196.25" y1="40" x2="62.5" y2="80"/>
  <line marker-end="url(#arrend)"  x1="62.5" y1="180" x2="196.25" y2="220"/>
</g>

<g style="font-size:16px; fill:black; text-anchor:start">
	<text x="232.5" y="63">actually</text>
	<text x="232.5" y="204">actually</text>
</g>
<g style="font-size:16px; fill:black; text-anchor:end">
	<text x="100" y="58">conceptually</text>
	<text x="100" y="213">conceptually</text>
</g>

</g>
</svg>

