<?xml version="1.0" standalone="no"?>
<!DOCTYPE svg PUBLIC "-//W3C//DTD SVG 1.0//EN"
"http://www.w3.org/TR/2001/REC-SVG-20010904/DTD/svg10.dtd">
<svg width="900" height="540" xmlns="http://www.w3.org/2000/svg" xmlns:xlink="http://www.w3.org/1999/xlink">
<style type="text/css">
<![CDATA[
rect {stroke:black;fill:white;}
text {font-family:Verdana, sans-serif;font-size:14;text-anchor:start}
line {stroke:black;stroke-width:1}
]]>
</style>


<g transform="translate(300,10)">
<rect width="80" height="40" />
<text x="15" y="25">IHDR</text>
<text x="55" y="12" style="font-size:8pt">1</text>
</g>

<line x1="303" y1="50" x2="35" y2="120"/>
<line x1="309" y1="50" x2="95" y2="120"/>
<line x1="315" y1="50" x2="155" y2="120"/>
<line x1="321" y1="50" x2="215" y2="120"/>
<line x1="327" y1="50" x2="275" y2="120"/>
<line x1="333" y1="50" x2="335" y2="120"/>
<line x1="339" y1="50" x2="425" y2="120"/>
<line x1="345" y1="50" x2="515" y2="120"/>
<line x1="351" y1="50" x2="575" y2="120"/>
<line x1="357" y1="50" x2="635" y2="120"/>
<line x1="363" y1="50" x2="695" y2="120"/>
<line x1="369" y1="50" x2="755" y2="120"/>

<g transform="translate(0,120)">


<g transform="translate(10,0)">
<rect width="50" height="40" />
<text x="5" y="25">tIME</text>
<text x="40" y="12" style="font-size:8pt">?</text>
</g>
<g transform="translate(70,0)">
<rect width="50" height="40" />
<text x="5" y="25">zTXt</text>
<text x="40" y="12" style="font-size:8pt">*</text>
</g>
<g transform="translate(130,0)">
<rect width="50" height="40" />
<text x="5" y="25">tEXt</text>
<text x="40" y="12" style="font-size:8pt">*</text>
</g>
<g transform="translate(190,0)">
<rect width="50" height="40" />
<text x="5" y="25">iTXt</text>
<text x="40" y="12" style="font-size:8pt">*</text>
</g>
<g transform="translate(250,0)">
<rect width="50" height="40" />
<text x="5" y="25">pHYs</text>
<text x="40" y="12" style="font-size:8pt">?</text>
</g>
<g transform="translate(310,0)">
<rect width="50" height="40" />
<text x="5" y="25">sPLT</text>
<text x="40" y="12" style="font-size:8pt">*</text>
</g>
<g transform="translate(370,0)">
<rect width="110" height="40" />
<text x="2" y="25">(iCCP | sRGB)</text>
<text x="100" y="12" style="font-size:8pt">?</text>
</g>
<g transform="translate(490,0)">
<rect width="50" height="40" />
<text x="5" y="25">sBIT</text>
<text x="40" y="12" style="font-size:8pt">?</text>
</g>
<g transform="translate(550,0)">
<rect width="50" height="40" />
<text x="5" y="25">gAMA</text>
<text x="40" y="12" style="font-size:8pt">?</text>
</g>
<g transform="translate(610,0)">
<rect width="50" height="40" />
<text x="5" y="25">cHRM</text>
<text x="40" y="12" style="font-size:8pt">?</text>
</g>

<g transform="translate(670,0)">
<rect width="50" height="40" />
<text x="5" y="25">tRNS</text>
<text x="40" y="12" style="font-size:8pt">?</text>
</g>

<g transform="translate(730,0)">
<rect width="50" height="40" />
<text x="5" y="25">bKGD</text>
<text x="40" y="12" style="font-size:8pt">?</text>
</g>


</g>




<line x1="275" y1="160" x2="424" y2="400"/>
<line x1="335" y1="160" x2="432" y2="400"/>
<line x1="425" y1="160" x2="440" y2="400"/>
<line x1="515" y1="160" x2="448" y2="400"/>
<line x1="575" y1="160" x2="456" y2="400"/>
<line x1="635" y1="160" x2="464" y2="400"/>
<line x1="695" y1="160" x2="472" y2="400"/>
<line x1="755" y1="160" x2="480" y2="400"/>








<g transform="translate(420,400)">
<rect width="80" height="40" />
<text x="20" y="25">IDAT</text>
<text x="60" y="12" style="font-size:8pt">+</text>
</g>

<line x1="450" y1="440" x2="380" y2="480"/>
<line x1="35" y1="160" x2="344" y2="480"/>
<line x1="95" y1="160" x2="352" y2="480"/>
<line x1="155" y1="160" x2="360" y2="480"/>
<line x1="215" y1="160" x2="368" y2="480"/>

<g transform="translate(340,480)">
<rect width="60" height="40" />
<text x="5" y="25">IEND</text>
<text x="45" y="12" style="font-size:8pt">1</text>
</g>


</svg>

