<?xml version="1.0"?>
<svg viewBox="0 0 945 550" xmlns="http://www.w3.org/2000/svg" xmlns:xlink="http://www.w3.org/1999/xlink">
<style>
    @font-face {
        font-family: OS_Cond_Med;
        src: url(./fonts/OS_Cond_Med.woff2);
    }
    rect {
        stroke:#777;
        fill:white;
        }
    text {
        font-family: OS_Cond_Med;
        font-size:18px;
        text-anchor:start
        }
    line {
        stroke:#777;
        stroke-width:1
        }
</style>

<!-- <rect width="100%" height="100%" style="fill: #F06" /> -->

<g transform="translate(350,10)">
<rect width="60" height="40" />
<text x="5" y="25">IHDR</text>
<text x="45" y="12" style="font-size:8pt">1</text>
</g>

<line x1="353" y1="50" x2="35" y2="120"/>
<line x1="357" y1="50" x2="90" y2="120"/>
<line x1="361" y1="50" x2="145" y2="120"/>
<line x1="365" y1="50" x2="200" y2="120"/>
<line x1="369" y1="50" x2="255" y2="120"/>
<line x1="373" y1="50" x2="310" y2="120"/>
<line x1="377" y1="50" x2="365" y2="120"/>

<!-- <line x1="381" y1="50" x2="420" y2="120"/> -->
<!-- <line x1="384" y1="50" x2="475" y2="120"/> -->
<line x1="387" y1="50" x2="570" y2="120"/>
<line x1="389" y1="50" x2="680" y2="120"/>
<line x1="392" y1="50" x2="735" y2="120"/>
<line x1="394" y1="50" x2="790" y2="120"/>
<line x1="397" y1="50" x2="845" y2="120"/>
<line x1="400" y1="50" x2="900" y2="120"/>


<g transform="translate(0,120)">


<g transform="translate(10,0)">
<rect width="50" height="40" />
<text x="5" y="25">tIME</text>
<text x="40" y="12" style="font-size:8pt">?</text>
</g>
<g transform="translate(65,0)">
<rect width="50" height="40" />
<text x="5" y="25">zTXt</text>
<text x="40" y="12" style="font-size:8pt">*</text>
</g>
<g transform="translate(120,0)">
<rect width="50" height="40" />
<text x="5" y="25">tEXt</text>
<text x="40" y="12" style="font-size:8pt">*</text>
</g>
<g transform="translate(175,0)">
<rect width="50" height="40" />
<text x="5" y="25">iTXt</text>
<text x="40" y="12" style="font-size:8pt">*</text>
</g>
<g transform="translate(230,0)">
<rect width="50" height="40" />
<text x="5" y="25">pHYs</text>
<text x="40" y="12" style="font-size:8pt">?</text>
</g>
<g transform="translate(285,0)">
<rect width="50" height="40" />
<text x="5" y="25">sPLT</text>
<text x="40" y="12" style="font-size:8pt">*</text>
</g>
<g transform="translate(340,0)">
<rect width="50" height="40" />
<text x="5" y="25">eXIf</text>
<text x="40" y="12" style="font-size:8pt">?</text>
</g>
<!-- <g transform="translate(395,0)">
<rect width="50" height="40" />
<text x="5" y="25">acTL</text>
<text x="40" y="12" style="font-size:8pt">1</text>
</g> -->
<!-- no fcTL -->

<g transform="translate(125,0)">
<g transform="translate(380,0)">
<rect width="140" height="40" />
<text x="5" y="25">(iCCP | cICP | sRGB)</text>
<text x="130" y="12" style="font-size:8pt">?</text>
</g>
<g transform="translate(525,0)">
<rect width="50" height="40" />
<text x="5" y="25">sBIT</text>
<text x="40" y="12" style="font-size:8pt">?</text>
</g>
<g transform="translate(580,0)">
<rect width="50" height="40" />
<text x="5" y="25">gAMA</text>
<text x="40" y="12" style="font-size:8pt">?</text>
</g>
<g transform="translate(635,0)">
<rect width="55" height="40" />
<text x="5" y="25">cHRM</text>
<text x="45" y="12" style="font-size:8pt">?</text>
</g>
<g transform="translate(695,0)">
<rect width="55" height="40" />
<text x="5" y="25">mDCv</text>
<text x="45" y="12" style="font-size:8pt">?</text>
</g>
<g transform="translate(755,0)">
<rect width="55" height="40" />
<text x="5" y="25">cLLi</text>
<text x="45" y="12" style="font-size:8pt">?</text>
</g>
</g>

</g>

<line x1="659" y1="200" x2="570" y2="160"/>
<line x1="662" y1="200" x2="680" y2="160"/>
<line x1="665" y1="200" x2="735" y2="160"/>
<line x1="668" y1="200" x2="790" y2="160"/>
<line x1="670" y1="200" x2="845" y2="160"/>
<line x1="672" y1="200" x2="900" y2="160"/>

<g transform="translate(640,200)">
<rect width="50" height="40" />
<text x="5" y="25">PLTE</text>
<text x="40" y="12" style="font-size:8pt">1</text>
</g>

<line x1="661" y1="240" x2="610" y2="280"/>
<line x1="665" y1="240" x2="665" y2="280"/>
<line x1="669" y1="240" x2="720" y2="280"/>

<g transform="translate(60,280)">

<g transform="translate(525,0)">
<rect width="50" height="40" />
<text x="5" y="25">tRNS</text>
<text x="40" y="12" style="font-size:8pt">?</text>
</g>

<g transform="translate(580,0)">
<rect width="50" height="40" />
<text x="5" y="25">hIST</text>
<text x="40" y="12" style="font-size:8pt">?</text>
</g>

<g transform="translate(635,0)">
<rect width="50" height="40" />
<text x="5" y="25">bKGD</text>
<text x="40" y="12" style="font-size:8pt">?</text>
</g>

</g>

<line x1="535" y1="360" x2="310" y2="160"/>
<line x1="539" y1="360" x2="365" y2="160"/>
<!-- <line x1="543" y1="360" x2="420" y2="160"/> -->
<!-- <line x1="547" y1="360" x2="475" y2="160"/> -->

<!--
<line x1="661" y1="240" x2="610" y2="280"/>
<line x1="665" y1="240" x2="665" y2="280"/>
<line x1="669" y1="240" x2="720" y2="280"/> -->

<line x1="551" y1="360" x2="610" y2="320"/>
<line x1="555" y1="360" x2="665" y2="320"/>
<line x1="559" y1="360" x2="720" y2="320"/>

<g transform="translate(520,360)">
<rect width="55" height="40" />
<text x="5" y="25">IDAT</text>
<text x="45" y="12" style="font-size:8pt">+</text>
</g>

<!-- <g transform="translate(420,430)">
<rect width="60" height="40" />
<text x="5" y="25">fdAT</text>
<text x="45" y="12" style="font-size:8pt">+</text>
</g>

<g transform="translate(485,430)">
<rect width="60" height="40" />
<text x="5" y="25">fcTL</text>
<text x="45" y="12" style="font-size:8pt">+</text>
</g> -->


<line x1="35" y1="160" x2="344" y2="500"/>
<line x1="90" y1="160" x2="352" y2="500"/>
<line x1="145" y1="160" x2="360" y2="500"/>
<line x1="200" y1="160" x2="368" y2="500"/>
<line x1="255" y1="160" x2="376" y2="500"/>

<!-- <line x1="450" y1="430" x2="543" y2="400"/>
<line x1="515" y1="430" x2="547" y2="400"/> -->

<!-- <line x1="450" y1="470" x2="382" y2="500"/>
<line x1="515" y1="470" x2="388" y2="500"/> -->

<g transform="translate(340,500)">
<rect width="60" height="40" />
<text x="5" y="25">IEND</text>
<text x="45" y="12" style="font-size:8pt">1</text>
</g>
<line x1="543" y1="400" x2="388" y2="500"/>


</svg>

