<?xml version="1.0" ?>
<svg viewBox="0 0 570 450" xmlns="http://www.w3.org/2000/svg" xmlns:xlink="http://www.w3.org/1999/xlink">
<style>
@font-face {
	font-family: OS_Cond_Med;
	src: url(./fonts/OS_Cond_Med.woff2);
}
text {
	font-family: OS_Cond_Med;
	fill: black;
	stroke: none;
	font-size: 16px;
}
</style>
<!-- solid arrow heads right and left -->
<marker id="arrend" refX="8" refY="4" markerWidth="8" markerHeight="8" orient="auto">
  <path d="M 1 4 L 1 1 8 4 1 7z"/>
</marker>

<marker id="larrend" refX="0" refY="4" markerWidth="8" markerHeight="8" orient="auto">
  <path d="M 8 4 L 8 1 0 4 8 7z"/>
</marker>

<g  style="stroke:black;stroke-width:1;" >

<!-- image types -->

<!-- truecolor with alpha -->

<rect x="20" y="60" width="20" height="20"  style="stroke:black;stroke-width:1;;fill:#B88" />
<text x="25" y="75">R</text>
<rect x="40" y="60" width="20" height="20"  style="stroke:black;stroke-width:1;;fill:#8B8" />
<text x="45" y="75">G</text>
<rect x="60" y="60" width="20" height="20"  style="stroke:black;stroke-width:1;;fill:#88B" />
<text x="65" y="75">B</text>
<rect x="80" y="60" width="20" height="20"  style="stroke:black;stroke-width:1;;fill:none" />
<text x="85" y="75">A</text>

<!-- greyscale with alpha -->
<rect x="20" y="120" width="20" height="20"  style="stroke:black;stroke-width:1;;fill:#AAA" />
<text x="25" y="135">Y</text>
<rect x="40" y="120" width="20" height="20"  style="stroke:black;stroke-width:1;;fill:white" />
<text x="45" y="135">A</text>

<!-- truecolor -->
<rect x="20" y="180" width="20" height="20"  style="stroke:black;stroke-width:1;;fill:#B88" />
<text x="25" y="195">R</text>
<rect x="40" y="180" width="20" height="20"  style="stroke:black;stroke-width:1;;fill:#8B8" />
<text x="45" y="195">G</text>
<rect x="60" y="180" width="20" height="20"  style="stroke:black;stroke-width:1;;fill:#88B" />
<text x="65" y="195">B</text>

<!-- greyscale -->
<rect x="20" y="240" width="20" height="20"  style="stroke:black;stroke-width:1;fill:#AAA" />
<text x="25" y="255">Y</text>

<!-- indexed color -->
<rect x="20" y="300" width="20" height="20"  style="stroke:black;stroke-width:1;fill:#ACA" />
<text x="25" y="315">3</text>

<polyline marker-end="url(#arrend)" style="stroke:black;stroke-width:1;fill:none" points="40 310 185 310 185 150 335 150" />

<g transform="translate(-60,0)">
<!--palette -->

  <path style="fill:none" d="M 420 40 H 540 V 420 H 420 z" />
	<line x1="420" y1="80" x2="540" y2="80"/>
        <text x="400" y="95">0</text>
        <line x1="420" y1="100" x2="540" y2="100"/>
        <text x="400" y="115">1</text>
	<line x1="420" y1="120" x2="540" y2="120"/>
        <text x="400" y="135">2</text>
	<line x1="420" y1="140" x2="540" y2="140"/>
        <text x="400" y="155">3</text>
	<line x1="420" y1="160" x2="540" y2="160"/>
        <text x="400" y="175">4</text>
	<line x1="420" y1="180" x2="540" y2="180"/>
        <text x="400" y="195">5</text>
	<line x1="420" y1="200" x2="540" y2="200"/>
        <text x="400" y="215">6</text>
	<line x1="420" y1="220" x2="540" y2="220"/>
        <text x="400" y="235">7</text>
	<line x1="420" y1="240" x2="540" y2="240"/>
        <text x="400" y="255">8</text>
	<line x1="420" y1="260" x2="540" y2="260"/>
        <text x="400" y="275">9</text>
	<line x1="420" y1="280" x2="540" y2="280"/>
        <text x="400" y="295">10</text>
	<line x1="420" y1="300" x2="540" y2="300"/>
        <text x="400" y="315">11</text>
	<line x1="420" y1="320" x2="540" y2="320"/>
        <text x="400" y="335">12</text>
	<line x1="420" y1="340" x2="540" y2="340"/>
        <text x="400" y="355">13</text>
	<line x1="420" y1="360" x2="540" y2="360"/>
        <text x="400" y="375">14</text>
	<line x1="420" y1="380" x2="540" y2="380"/>
        <text x="400" y="395">15</text>
	<line x1="420" y1="400" x2="540" y2="400"/>
        <text x="400" y="415">16</text>

	<line x1="460" y1="40" x2="460" y2="420"/>
	<line x1="500" y1="40" x2="500" y2="420"/>

<!-- palette entries -->

<text x="425" y="95">255</text>
<text x="465" y="95">255</text>
<text x="505" y="95">255</text>
<text x="565" y="95">0</text>

<text x="425" y="155">176</text>
<text x="465" y="155">208</text>
<text x="505" y="155">176</text>
<text x="565" y="155">255</text>

<text x="425" y="195">208</text>
<text x="465" y="195">176</text>
<text x="505" y="195">176</text>
<text x="565" y="195">255</text>

<text x="425" y="255">176</text>
<text x="465" y="255">176</text>
<text x="505" y="255">208</text>
<text x="565" y="255">255</text>


<!-- alpha table -->

  <path style="fill:none" d="M560 40 H 600 V 420 H 560 z" />

	<line x1="560" y1="80" x2="600" y2="80"/>
	<line x1="560" y1="100" x2="600" y2="100"/>
	<line x1="560" y1="120" x2="600" y2="120"/>
	<line x1="560" y1="140" x2="600" y2="140"/>
	<line x1="560" y1="160" x2="600" y2="160"/>
	<line x1="560" y1="180" x2="600" y2="180"/>
	<line x1="560" y1="200" x2="600" y2="200"/>
	<line x1="560" y1="220" x2="600" y2="220"/>
	<line x1="560" y1="240" x2="600" y2="240"/>
	<line x1="560" y1="260" x2="600" y2="260"/>
	<line x1="560" y1="280" x2="600" y2="280"/>
	<line x1="560" y1="300" x2="600" y2="300"/>
	<line x1="560" y1="320" x2="600" y2="320"/>
	<line x1="560" y1="340" x2="600" y2="340"/>
	<line x1="560" y1="360" x2="600" y2="360"/>
	<line x1="560" y1="380" x2="600" y2="380"/>
	<line x1="560" y1="400" x2="600" y2="400"/>


<g style="font-size:18px; text-anchor:middle">

	<text x="440" y="62">R</text>
	<text x="480" y="62">G</text>
	<text x="520" y="62">B</text>

	<text x="580" y="62">A</text>

</g>

<g style="font-size:18px; text-anchor:middle">
	<text x="480" y="20">Palette</text>
	<text x="580" y="20">Alpha</text>

</g>

</g>

</g>

<g style="font-size:16px; text-anchor:start">
	<text x="20" y="54">Truecolor with alpha</text>
  	<text x="20" y="114">Greyscale with alpha</text>
	<text x="20" y="174">Truecolor</text>
	<text x="20" y="234">Greyscale</text>
	<text x="20" y="294">Indexed color</text>

</g>

</svg>
