<?xml version="1.0" standalone="no"?>
<svg viewBox="0 0 370 525" xmlns="http://www.w3.org/2000/svg" xmlns:xlink="http://www.w3.org/1999/xlink">
<style>
@font-face {
	font-family: OS_Cond_Med;
	src: url(./fonts/OS_Cond_Med.woff2);
}
text {
	font-family: OS_Cond_Med;
	fill: black;
}
rect {
	fill: #BED;
}
</style>
<!-- solid arrow heads right and left -->
<marker id="arrend" refX="8" refY="4" markerWidth="8" markerHeight="8" orient="auto">
  <path d="M 1 4 L 1 1 8 4 1 7z"/>
</marker>

<marker id="larrend" refX="0" refY="4" markerWidth="8" markerHeight="8" orient="auto">
  <path d="M 8 4 L 8 1 0 4 8 7z"/>
</marker>

<g transform="translate(10,10)">

<g style="stroke:black; stroke-width:1">
	<rect x="100" y="0" width="150" height="50" />
	<rect x="200" y="80" width="150" height="50" />
	<rect x="200" y="190" width="150" height="50" />
	<rect x="200" y="295" width="150" height="50" />
	<rect x="100" y="380" width="150" height="50" />
	<rect x="100" y="455" width="150" height="50" />
	<rect x="0" y="185" width="150" height="165" />
</g>

<g style="fill:none; stroke:black; stroke-width:1">
	<line marker-end="url(#arrend)" x1="175" y1="50" x2="175" y2="380"/>

	<line marker-end="url(#arrend)" x1="175" y1="55" x2="275" y2="80"/>
	<line marker-end="url(#arrend)" x1="275" y1="130" x2="175" y2="155"/>

	<line marker-end="url(#arrend)" x1="175" y1="165" x2="275" y2="190"/>
	<line marker-end="url(#arrend)" x1="275" y1="240" x2="175" y2="265"/>

	<line marker-end="url(#arrend)" x1="175" y1="270" x2="275" y2="295"/>
	<line marker-end="url(#arrend)" x1="275" y1="345" x2="175" y2="370"/>

	<line marker-end="url(#arrend)" x1="175" y1="160" x2="75" y2="185"/>
	<line marker-end="url(#arrend)" x1="75" y1="350" x2="175" y2="372"/>

	<line marker-end="url(#arrend)" x1="175" y1="430" x2="175" y2="455"/>

</g>

<g style="stroke:none; font-size:18px; fill:black; text-anchor:middle">
	<text x="175" y="29">reference image</text>
	<text x="275" y="109">alpha separation</text>
	<text x="275" y="219">RGB merging</text>
	<text x="275" y="324">alpha compaction</text>

	<text x="75" y="270.5">indexing</text>

	<text x="175" y="409">sample depth scaling</text>

	<text x="175" y="484">PNG image</text>
</g>

</g>
</svg>

